<svg width="20" height="20" viewBox="0 0 20 20" fill="none" xmlns="http://www.w3.org/2000/svg">
<path d="M19.8573 11.1795L8.91142 0.210225C8.80906 0.107661 8.60432 0.00509644 8.50196 0.00509644L0.614193 0C0.307121 0 1.20699e-05 0.307691 1.20699e-05 0.615383L6.24806e-05 8.31279C6.24806e-05 8.51792 0.102432 8.62048 0.204789 8.72305L11.157 19.7949C11.2593 19.8974 11.4641 20 11.5664 20C11.7711 20 11.8735 19.8974 11.9758 19.7949L19.755 12C20.0621 11.7949 20.062 11.3846 19.8573 11.1795ZM11.6688 18.8718L0.818907 8.0051L0.818919 0.923077L8.19491 0.928175L18.9361 11.5897L11.6688 18.8718ZM4.29903 4.51282C3.68488 5.1282 3.68488 6.15384 4.29903 6.76923C4.91317 7.38461 5.93675 7.38461 6.5509 6.76923C7.16504 6.15384 7.16504 5.1282 6.5509 4.51282C5.93675 3.89744 4.91317 3.89744 4.29903 4.51282Z" fill="#999999"/>
</svg>
